<?xml version="1.0" encoding="UTF-8"?>
<svg xmlns="http://www.w3.org/2000/svg" xmlns:xlink="http://www.w3.org/1999/xlink" width="25px" height="25px" viewBox="0 0 25 25" version="1.1">
<g id="surface1">
<path style="fill:none;stroke-width:32;stroke-linecap:round;stroke-linejoin:miter;stroke:rgb(255,255,255);stroke-opacity:1;stroke-miterlimit:10;" d="M 416 432 L 64 80 " transform="matrix(0.0488281,0,0,0.0488281,0,0)"/>
<path style=" stroke:none;fill-rule:nonzero;fill:rgb(255,255,255);fill-opacity:1;" d="M 10.9375 6.6875 L 10.9375 8.335938 C 10.9375 8.386719 10.957031 8.4375 10.996094 8.472656 L 12.167969 9.644531 C 12.222656 9.703125 12.304688 9.71875 12.378906 9.6875 C 12.453125 9.65625 12.5 9.585938 12.5 9.507812 L 12.5 5.886719 C 12.503906 5.445312 12.265625 5.039062 11.882812 4.828125 C 11.484375 4.613281 10.996094 4.648438 10.632812 4.914062 C 10.621094 4.921875 10.613281 4.933594 10.601562 4.941406 L 9.042969 6.21875 C 9 6.253906 8.972656 6.304688 8.972656 6.359375 C 8.96875 6.414062 8.988281 6.46875 9.027344 6.507812 L 9.859375 7.339844 C 9.929688 7.410156 10.042969 7.417969 10.121094 7.351562 Z M 10.9375 6.6875 "/>
<path style=" stroke:none;fill-rule:nonzero;fill:rgb(255,255,255);fill-opacity:1;" d="M 10.9375 18.3125 L 7.125 15.191406 C 6.84375 14.964844 6.496094 14.84375 6.136719 14.84375 L 3.125 14.84375 L 3.125 10.15625 L 5.601562 10.15625 C 5.679688 10.15625 5.75 10.109375 5.78125 10.035156 C 5.8125 9.960938 5.796875 9.878906 5.738281 9.824219 L 4.566406 8.652344 C 4.53125 8.613281 4.480469 8.59375 4.429688 8.59375 L 2.734375 8.59375 C 2.085938 8.59375 1.5625 9.117188 1.5625 9.765625 L 1.5625 15.234375 C 1.5625 15.882812 2.085938 16.40625 2.734375 16.40625 L 6.140625 16.40625 L 10.601562 20.058594 C 10.613281 20.066406 10.621094 20.074219 10.632812 20.082031 C 11.003906 20.355469 11.496094 20.386719 11.894531 20.164062 C 12.273438 19.949219 12.503906 19.546875 12.5 19.113281 L 12.5 16.664062 C 12.5 16.613281 12.480469 16.5625 12.441406 16.527344 L 11.269531 15.355469 C 11.214844 15.296875 11.132812 15.28125 11.058594 15.3125 C 10.984375 15.34375 10.9375 15.414062 10.9375 15.492188 Z M 6.144531 16.40625 Z M 6.144531 16.40625 "/>
<path style=" stroke:none;fill-rule:nonzero;fill:rgb(255,255,255);fill-opacity:1;" d="M 17.1875 12.5 C 17.1875 11.300781 16.902344 10.164062 16.320312 9.019531 C 16.121094 8.644531 15.65625 8.5 15.277344 8.691406 C 14.898438 8.886719 14.742188 9.347656 14.929688 9.730469 C 15.398438 10.648438 15.625 11.554688 15.625 12.5 C 15.625 12.628906 15.621094 12.761719 15.609375 12.898438 C 15.601562 13.011719 15.644531 13.121094 15.722656 13.203125 L 16.683594 14.164062 C 16.734375 14.214844 16.808594 14.234375 16.878906 14.210938 C 16.945312 14.191406 16.996094 14.136719 17.011719 14.066406 C 17.128906 13.550781 17.1875 13.027344 17.1875 12.5 Z M 17.1875 12.5 "/>
<path style=" stroke:none;fill-rule:nonzero;fill:rgb(255,255,255);fill-opacity:1;" d="M 20.3125 12.5 C 20.3125 10 19.671875 8.402344 18.644531 6.636719 C 18.421875 6.269531 17.949219 6.148438 17.582031 6.367188 C 17.210938 6.582031 17.082031 7.054688 17.292969 7.425781 C 18.214844 9.007812 18.75 10.34375 18.75 12.5 C 18.75 13.664062 18.589844 14.59375 18.292969 15.460938 C 18.242188 15.601562 18.28125 15.757812 18.386719 15.863281 L 19.203125 16.683594 C 19.25 16.730469 19.316406 16.75 19.378906 16.738281 C 19.445312 16.722656 19.496094 16.679688 19.523438 16.621094 C 20.023438 15.421875 20.3125 14.15625 20.3125 12.5 Z M 20.3125 12.5 "/>
<path style=" stroke:none;fill-rule:nonzero;fill:rgb(255,255,255);fill-opacity:1;" d="M 23.4375 12.5 C 23.4375 8.875 22.453125 6.585938 20.972656 4.265625 C 20.738281 3.902344 20.253906 3.796875 19.890625 4.027344 C 19.527344 4.261719 19.421875 4.742188 19.652344 5.109375 C 20.988281 7.195312 21.875 9.253906 21.875 12.5 C 21.875 14.816406 21.441406 16.507812 20.722656 18.015625 C 20.6875 18.09375 20.703125 18.179688 20.761719 18.238281 L 21.632812 19.109375 C 21.675781 19.15625 21.738281 19.175781 21.800781 19.167969 C 21.863281 19.15625 21.914062 19.117188 21.945312 19.0625 C 22.992188 17.003906 23.4375 14.992188 23.4375 12.5 Z M 23.4375 12.5 "/>
</g>
</svg>
